<?xml version="1.0" encoding="UTF-8"?>
<svg id="_レイヤー_1" data-name="レイヤー 1" xmlns="http://www.w3.org/2000/svg" version="1.1" viewBox="0 0 497 66">
  <defs>
    <style>
      .cls-1 {
        fill: none;
      }

      .cls-1, .cls-2 {
        stroke-width: 0px;
      }

      .cls-2 {
        fill: #fff;
      }
    </style>
  </defs>
  <g>
    <path class="cls-2" d="M31.7,2.3c-4.5,0-8.7.7-12.6,2.2-3.9,1.5-7.3,3.6-10.1,6.4-2.9,2.8-5.1,6-6.6,9.8-1.6,3.8-2.3,7.9-2.3,12.5s.8,8.8,2.3,12.5c1.6,3.8,3.8,7,6.6,9.8,2.9,2.8,6.2,4.9,10.1,6.4,3.9,1.5,8.1,2.2,12.6,2.2s8-.5,10.8-1.6c2.9-1.1,5.5-2.6,7.9-4.5v-13.7c-1.3,1.5-2.8,2.8-4.6,4.1-1.8,1.2-3.8,2.2-6,3-2.2.7-4.7,1.1-7.6,1.1s-6.5-.8-9.4-2.3c-2.9-1.6-5.2-3.8-7-6.7-1.8-2.9-2.7-6.3-2.7-10.2s.9-7.4,2.7-10.3c1.8-2.9,4.1-5.1,7-6.7,2.9-1.6,6-2.3,9.4-2.3s5.4.4,7.6,1.1c2.2.7,4.2,1.7,6,3,1.8,1.2,3.3,2.6,4.6,4.1v-13.7c-2.4-1.9-5.1-3.4-7.9-4.5-2.9-1.1-6.5-1.6-10.8-1.6Z"/>
    <polygon class="cls-2" points="102.5 25.9 74.7 25.9 74.7 3.5 62.6 3.5 62.6 63 74.7 63 74.7 36.8 102.5 36.8 102.5 63 114.7 63 114.7 3.5 102.5 3.5 102.5 25.9"/>
    <path class="cls-2" d="M121.1,63h13.7l6.2-13.5h20.4l6.3,13.5h13.8L151.3,0l-30.2,63ZM158.7,39.9h-14.8l7.4-17.1,7.4,17.1Z"/>
    <polygon class="cls-2" points="200.1 3.5 187.9 3.5 187.9 63 223.8 63 223.8 52.4 200.1 52.4 200.1 3.5"/>
    <polygon class="cls-2" points="242.9 3.5 230.8 3.5 230.8 63 266.6 63 266.6 52.4 242.9 52.4 242.9 3.5"/>
    <polygon class="cls-2" points="281.4 3.5 273.6 3.5 273.6 63 281.4 63 285.3 63 311.4 63 311.4 52.7 285.3 52.7 285.3 36.5 309.7 36.5 309.7 26.4 285.3 26.4 285.3 13.8 311.4 13.8 311.4 3.5 285.3 3.5 281.4 3.5"/>
    <polygon class="cls-2" points="365.8 40.4 323.4 .5 323.4 63 335.2 63 335.2 26.1 377.5 66 377.5 3.5 365.8 3.5 365.8 40.4"/>
    <path class="cls-2" d="M419.3,31.2v9.7h17.1c-.5,1.8-1.2,3.5-2.2,5-1,1.5-2.1,2.9-3.5,4.1s-3,2.1-5,2.8c-1.9.7-4.1,1-6.5,1-3.7,0-7-.9-9.9-2.5-2.9-1.7-5.2-4.1-6.9-7.2-1.7-3.1-2.6-6.7-2.6-10.8s.9-7.7,2.6-10.7c1.7-3,4.1-5.3,7-6.9,2.9-1.6,6.2-2.4,9.8-2.4s7,.8,9.6,2.4c2.6,1.6,4.7,3.7,6.2,6.3l10.4-6c-1.8-2.8-4-5.2-6.5-7.2-2.5-2-5.4-3.6-8.7-4.7-3.3-1.1-6.9-1.7-11-1.7s-8.8.7-12.8,2.2c-3.9,1.5-7.3,3.6-10.2,6.3-2.9,2.7-5.1,6-6.8,9.8-1.6,3.8-2.4,8-2.4,12.6s.8,8.8,2.3,12.7c1.6,3.9,3.8,7.2,6.6,9.9,2.9,2.8,6.2,4.9,10.1,6.5,3.9,1.5,8.1,2.3,12.7,2.3s9.2-.9,13-2.6c3.8-1.8,7-4.2,9.6-7.3,2.6-3.1,4.5-6.6,5.7-10.7,1.2-4,1.7-8.3,1.6-12.8h-29.3Z"/>
    <polygon class="cls-2" points="496.4 13.8 496.4 3.5 470.3 3.5 466.4 3.5 458.6 3.5 458.6 63 466.4 63 470.3 63 496.4 63 496.4 52.7 470.3 52.7 470.3 36.5 494.7 36.5 494.7 26.4 470.3 26.4 470.3 13.8 496.4 13.8"/>
  </g>
  <rect class="cls-1" width="497" height="66"/>
</svg>