<?xml version="1.0" encoding="UTF-8"?>
<svg id="_レイヤー_1" data-name="レイヤー 1" xmlns="http://www.w3.org/2000/svg" version="1.1" viewBox="0 0 204 66">
  <defs>
    <style>
      .cls-1 {
        fill: none;
      }

      .cls-1, .cls-2 {
        stroke-width: 0px;
      }

      .cls-2 {
        fill: #fff;
      }
    </style>
  </defs>
  <g>
    <polygon class="cls-2" points="45.7 40 3.4 .1 3.4 62.6 15.1 62.6 15.1 25.7 57.5 65.6 57.5 3.1 45.7 3.1 45.7 40"/>
    <polygon class="cls-2" points="78.2 3.1 70.4 3.1 70.4 62.6 78.2 62.6 82.1 62.6 108.2 62.6 108.2 52.3 82.1 52.3 82.1 36.1 106.5 36.1 106.5 25.9 82.1 25.9 82.1 13.4 108.2 13.4 108.2 3.1 82.1 3.1 78.2 3.1"/>
    <polygon class="cls-2" points="187.5 3.1 174.8 40.1 158 .1 141.4 40.1 128.5 3.1 114.2 3.1 139.2 65.9 158 26.8 176.7 65.9 201.8 3.1 187.5 3.1"/>
  </g>
  <rect class="cls-1" width="204" height="66"/>
</svg>