<?xml version="1.0" encoding="UTF-8"?>
<svg id="_レイヤー_1" data-name="レイヤー 1" xmlns="http://www.w3.org/2000/svg" version="1.1" viewBox="0 0 560 66">
  <defs>
    <style>
      .cls-1 {
        fill: none;
      }

      .cls-1, .cls-2 {
        stroke-width: 0px;
      }

      .cls-2 {
        fill: #fff;
      }
    </style>
  </defs>
  <g>
    <path class="cls-2" d="M34.6,5.3c-3.3-1.5-7.3-2.3-12-2.3H3.4v59.5h12.2v-21.6h7.1c4.7,0,8.7-.8,12-2.3,3.3-1.5,5.9-3.7,7.6-6.6,1.8-2.9,2.6-6.2,2.6-10.1s-.9-7.3-2.6-10.1c-1.8-2.8-4.3-5-7.6-6.5ZM30.3,28.5c-1.9,1.5-4.4,2.2-7.7,2.2h-7.1V13.3h7.1c3.2,0,5.8.7,7.7,2.2,1.9,1.4,2.8,3.6,2.8,6.5s-.9,5-2.8,6.5Z"/>
    <path class="cls-2" d="M104.8,10.5c-2.9-2.8-6.2-4.9-10-6.4-3.8-1.5-8-2.3-12.5-2.3s-8.6.8-12.5,2.3c-3.8,1.5-7.2,3.6-10,6.4-2.8,2.8-5,6-6.6,9.8-1.6,3.8-2.4,7.9-2.4,12.5s.8,8.6,2.3,12.5c1.5,3.8,3.7,7.2,6.5,10,2.8,2.8,6.2,5,10,6.6,3.8,1.6,8,2.3,12.6,2.3s8.8-.8,12.6-2.3c3.8-1.6,7.1-3.8,9.9-6.6,2.8-2.8,5-6.2,6.5-10,1.6-3.8,2.3-8,2.3-12.5s-.8-8.7-2.3-12.5c-1.6-3.8-3.8-7-6.6-9.8ZM98.6,42.9c-1.6,2.9-3.7,5.3-6.5,7-2.8,1.7-6,2.5-9.7,2.5s-6.9-.8-9.7-2.5c-2.8-1.7-5-4-6.5-7-1.6-2.9-2.4-6.3-2.4-10.1s.8-7.2,2.4-10.1c1.6-2.9,3.8-5.3,6.5-7,2.8-1.7,6-2.5,9.7-2.5s7,.8,9.8,2.5c2.8,1.7,4.9,4,6.5,7,1.5,2.9,2.3,6.3,2.3,10.1s-.8,7.2-2.3,10.1Z"/>
    <path class="cls-2" d="M159.8,34c-1.4-1.4-3.1-2.7-4.8-3.7-1.8-1-3.6-1.9-5.6-2.6-3-1-5.5-2-7.5-3-2-1-3.5-2-4.4-3.1-1-1.1-1.4-2.4-1.4-3.9s.6-2.8,1.8-3.9c1.2-1.1,3-1.7,5.4-1.7s3.4.4,4.8,1.1c1.4.7,2.7,1.6,3.8,2.8,1.1,1.2,2.1,2.5,2.8,3.9l9.5-5.3c-1-2.1-2.5-4.1-4.3-6.1-1.8-2-4.1-3.6-6.9-4.8-2.8-1.3-6-1.9-9.8-1.9s-7,.7-10,2c-3,1.3-5.3,3.2-7.1,5.7-1.7,2.5-2.6,5.4-2.6,8.8s.5,5.3,1.6,7.3c1.1,2,2.4,3.7,4.1,5.1,1.6,1.4,3.4,2.5,5.2,3.4,1.8.9,3.5,1.6,4.9,2.1,2.7,1,4.9,2,6.8,2.8,1.8.9,3.2,1.9,4.2,3,.9,1.1,1.4,2.6,1.4,4.5s-.8,3.9-2.3,5.1c-1.5,1.2-3.5,1.9-5.9,1.9s-4.1-.5-5.9-1.4c-1.8-.9-3.5-2.2-5-3.8-1.5-1.6-2.9-3.6-4.1-5.8l-8.7,6.1c1.3,2.8,3.1,5.4,5.4,7.7,2.3,2.4,5.1,4.3,8.2,5.7,3.1,1.4,6.5,2.1,10.2,2.1s5.3-.4,7.8-1.2,4.7-2,6.7-3.6c2-1.6,3.5-3.5,4.7-5.7,1.1-2.3,1.7-4.8,1.7-7.7s-.4-4.8-1.2-6.8c-.8-2-2-3.7-3.4-5.1Z"/>
    <path class="cls-2" d="M210.8,34c-1.4-1.4-3.1-2.7-4.8-3.7-1.8-1-3.6-1.9-5.6-2.6-3-1-5.5-2-7.5-3-2-1-3.5-2-4.4-3.1-1-1.1-1.4-2.4-1.4-3.9s.6-2.8,1.8-3.9c1.2-1.1,3-1.7,5.4-1.7s3.4.4,4.8,1.1c1.4.7,2.7,1.6,3.8,2.8,1.1,1.2,2.1,2.5,2.8,3.9l9.5-5.3c-1-2.1-2.5-4.1-4.3-6.1-1.8-2-4.1-3.6-6.9-4.8-2.8-1.3-6-1.9-9.8-1.9s-7,.7-10,2c-3,1.3-5.3,3.2-7.1,5.7-1.7,2.5-2.6,5.4-2.6,8.8s.5,5.3,1.6,7.3c1.1,2,2.4,3.7,4.1,5.1,1.6,1.4,3.4,2.5,5.2,3.4,1.8.9,3.5,1.6,4.9,2.1,2.7,1,4.9,2,6.8,2.8,1.8.9,3.2,1.9,4.2,3,.9,1.1,1.4,2.6,1.4,4.5s-.8,3.9-2.3,5.1c-1.5,1.2-3.5,1.9-5.9,1.9s-4.1-.5-5.9-1.4c-1.8-.9-3.5-2.2-5-3.8-1.5-1.6-2.9-3.6-4.1-5.8l-8.7,6.1c1.3,2.8,3.1,5.4,5.4,7.7,2.3,2.4,5.1,4.3,8.2,5.7,3.1,1.4,6.5,2.1,10.2,2.1s5.3-.4,7.8-1.2,4.7-2,6.7-3.6c2-1.6,3.5-3.5,4.7-5.7,1.1-2.3,1.7-4.8,1.7-7.7s-.4-4.8-1.2-6.8c-.8-2-2-3.7-3.4-5.1Z"/>
    <rect class="cls-2" x="225.4" y="3" width="12.3" height="59.5"/>
    <path class="cls-2" d="M287,32.9c-1.7-1.1-3.5-1.9-5.5-2.5,2.7-1.1,4.8-2.6,6.4-4.6,1.7-2.2,2.5-4.7,2.5-7.7s-.9-6.2-2.5-8.4c-1.7-2.2-4.1-3.9-7.1-5-3-1.1-6.5-1.7-10.5-1.7h-19.8v59.5h21.1c4.4,0,8.3-.6,11.6-1.8s5.9-3,7.8-5.5c1.8-2.5,2.8-5.7,2.8-9.6s-.6-5.5-1.8-7.6c-1.2-2.1-2.9-3.8-5-5.1ZM269.3,12.7c2.7,0,4.8.6,6.3,1.8s2.3,2.9,2.3,5.2-.4,2.7-1.1,3.8c-.7,1.1-1.7,1.9-3,2.5-1.3.6-2.8.8-4.6.8h-6.5v-14.1h6.5ZM279.9,49.1c-.9,1.3-2.2,2.3-3.9,2.8-1.6.6-3.5.9-5.5.9h-7.8v-17.2h7.8c1.5,0,2.9.2,4.2.5,1.3.3,2.5.8,3.4,1.5,1,.7,1.8,1.6,2.3,2.6.5,1,.8,2.3.8,3.8s-.5,3.7-1.4,5Z"/>
    <rect class="cls-2" x="304.2" y="3" width="12.3" height="59.5"/>
    <polygon class="cls-2" points="341.5 3 329.4 3 329.4 62.5 365.2 62.5 365.2 51.9 341.5 51.9 341.5 3"/>
    <rect class="cls-2" x="372.2" y="3" width="12.3" height="59.5"/>
    <polygon class="cls-2" points="391.4 14 407.4 14 407.4 62.5 419.6 62.5 419.6 14 435.6 14 435.6 3 391.4 3 391.4 14"/>
    <rect class="cls-2" x="442.5" y="3" width="12.3" height="59.5"/>
    <polygon class="cls-2" points="475.5 3 467.7 3 467.7 62.5 475.5 62.5 479.4 62.5 505.5 62.5 505.5 52.3 479.4 52.3 479.4 36 503.8 36 503.8 25.9 479.4 25.9 479.4 13.3 505.5 13.3 505.5 3 479.4 3 475.5 3"/>
    <path class="cls-2" d="M557.4,39.1c-.8-2-2-3.7-3.4-5.1-1.4-1.4-3.1-2.7-4.8-3.7-1.8-1-3.6-1.9-5.6-2.6-3-1-5.5-2-7.5-3-2-1-3.5-2-4.4-3.1-1-1.1-1.4-2.4-1.4-3.9s.6-2.8,1.8-3.9c1.2-1.1,3-1.7,5.4-1.7s3.4.4,4.8,1.1c1.4.7,2.7,1.6,3.8,2.8,1.1,1.2,2.1,2.5,2.8,3.9l9.5-5.3c-1-2.1-2.5-4.1-4.3-6.1-1.8-2-4.1-3.6-6.9-4.8-2.8-1.3-6-1.9-9.8-1.9s-7,.7-10,2c-3,1.3-5.3,3.2-7.1,5.7-1.7,2.5-2.6,5.4-2.6,8.8s.5,5.3,1.6,7.3c1.1,2,2.4,3.7,4.1,5.1,1.6,1.4,3.4,2.5,5.2,3.4,1.8.9,3.5,1.6,4.9,2.1,2.7,1,4.9,2,6.8,2.8,1.8.9,3.2,1.9,4.2,3,.9,1.1,1.4,2.6,1.4,4.5s-.8,3.9-2.3,5.1c-1.5,1.2-3.5,1.9-5.9,1.9s-4.1-.5-5.9-1.4c-1.8-.9-3.5-2.2-5-3.8-1.5-1.6-2.9-3.6-4.1-5.8l-8.7,6.1c1.3,2.8,3.1,5.4,5.4,7.7,2.3,2.4,5.1,4.3,8.2,5.7,3.1,1.4,6.5,2.1,10.2,2.1s5.3-.4,7.8-1.2,4.7-2,6.7-3.6c2-1.6,3.5-3.5,4.7-5.7,1.1-2.3,1.7-4.8,1.7-7.7s-.4-4.8-1.2-6.8Z"/>
  </g>
  <rect class="cls-1" width="560" height="66"/>
</svg>