<?xml version="1.0" encoding="UTF-8"?>
<svg id="_レイヤー_1" data-name="レイヤー 1" xmlns="http://www.w3.org/2000/svg" version="1.1" viewBox="0 0 150 137">
  <defs>
    <style>
      .cls-1 {
        fill: #717071;
      }

      .cls-1, .cls-2, .cls-3, .cls-4, .cls-5 {
        stroke-width: 0px;
      }

      .cls-2 {
        fill: #030303;
      }

      .cls-3 {
        fill: none;
      }

      .cls-4 {
        fill: #004da0;
      }

      .cls-5 {
        fill: #009fe8;
      }
    </style>
  </defs>
  <g id="_グループ_248" data-name="グループ 248">
    <g id="_グループ_99" data-name="グループ 99">
      <path id="_パス_1" data-name="パス 1" class="cls-1" d="M78.7,30.2v10.6l19.1-19.1-5.3-5.3-13.8,13.8Z"/>
      <path id="_パス_2" data-name="パス 2" class="cls-5" d="M76,0l-21.8,21.8,19.1,19.1v-10.6l-8.5-8.5,16.5-16.5-5.3-5.3Z"/>
      <path id="_パス_3" data-name="パス 3" class="cls-4" d="M76,65.9l-33-33-5.3,5.3,38.3,38.3,38.3-38.3-5.3-5.3-33,33Z"/>
    </g>
    <g id="_グループ_100" data-name="グループ 100">
      <rect id="_長方形_20" data-name="長方形 20" class="cls-2" x="12.8" y="127.3" width="1.1" height="9"/>
      <path id="_パス_4" data-name="パス 4" class="cls-2" d="M18.5,136.3h1.1v-6.7l6.8,7.2v-9.5h-1.1v6.7l-6.8-7.2v9.5Z"/>
      <path id="_パス_5" data-name="パス 5" class="cls-2" d="M30,127.3v1h2.3v8h1.1v-8h2.3v-1h-5.7Z"/>
      <path id="_パス_6" data-name="パス 6" class="cls-2" d="M39.4,127.3v9h5.2v-1h-4.1v-3.4h3.8v-1h-3.8v-2.6h4.1v-1h-5.2Z"/>
      <g id="_グループ_3" data-name="グループ 3">
        <rect class="cls-3" x="0" y="95.4" width="150" height="41.3"/>
        <g id="_グループ_2" data-name="グループ 2">
          <path id="_パス_7" data-name="パス 7" class="cls-2" d="M50.1,132.7v3.6h-1.1v-9h2.4c.8,0,1.6.2,2.2.7.6.5.9,1.2.9,2,0,.6-.2,1.2-.6,1.7-.4.5-1,.8-1.6.9l2.7,3.7h-1.3l-2.5-3.6h-1.1ZM50.1,131.8h1.3c.5,0,1-.1,1.4-.5.7-.7.7-1.8,0-2.5,0,0,0,0,0,0-.4-.3-.9-.5-1.4-.5h-1.3v3.5Z"/>
          <path id="_パス_8" data-name="パス 8" class="cls-2" d="M65.5,127.3h1.1v9.4l-6.8-7.1v6.7h-1.1v-9.4l6.8,7.1v-6.7Z"/>
          <path id="_パス_9" data-name="パス 9" class="cls-2" d="M72.6,133.6l-1.1,2.7h-1.2l4.2-9.4,4.2,9.4h-1.2l-1.1-2.7h-3.6ZM73.1,132.6h2.7l-1.4-3.2-1.4,3.2Z"/>
          <path id="_パス_10" data-name="パス 10" class="cls-2" d="M81.4,128.4v-1h5.7v1h-2.3v7.9h-1.1v-7.9h-2.3Z"/>
          <rect id="_長方形_21" data-name="長方形 21" class="cls-2" x="90.8" y="127.3" width="1.1" height="9"/>
          <path id="_パス_11" data-name="パス 11" class="cls-2" d="M97.3,135.1c-1.7-1.9-1.7-4.7,0-6.6,1.8-1.8,4.7-1.8,6.5,0,1.7,1.9,1.7,4.7,0,6.6-1.8,1.8-4.7,1.8-6.5,0M98.1,129.3c-1.3,1.4-1.3,3.6,0,5,1.3,1.3,3.5,1.3,4.9,0,1.3-1.4,1.3-3.6,0-5-1.4-1.3-3.5-1.3-4.9,0"/>
          <path id="_パス_12" data-name="パス 12" class="cls-2" d="M116,127.3h1.1v9.4l-6.8-7.1v6.7h-1.1v-9.4l6.8,7.1v-6.7Z"/>
          <path id="_パス_13" data-name="パス 13" class="cls-2" d="M123.1,133.6l-1.1,2.7h-1.2l4.2-9.4,4.2,9.4h-1.2l-1.1-2.7h-3.6ZM123.5,132.6h2.7l-1.4-3.2-1.4,3.2Z"/>
          <path id="_パス_14" data-name="パス 14" class="cls-2" d="M132.7,127.3h1.1v7.9h3.5v1h-4.6v-9Z"/>
          <path id="_パス_15" data-name="パス 15" class="cls-2" d="M6,102.2c-1.8,1.9-2.8,4.4-2.8,7.1,0,2.6.9,5.2,2.8,7.1,1.7,1.8,4.1,2.8,6.5,2.8,3.1.1,6.1-1.3,8.1-3.7v4c-2.2,1.9-5.1,2.9-8.1,2.8-3.3,0-6.6-1.3-8.9-3.7C1.2,116-.1,112.7,0,109.2c-.1-3.4,1.2-6.8,3.6-9.2,2.3-2.4,5.5-3.7,8.9-3.7,2.9-.1,5.8.9,8.1,2.8v4c-1.9-2.5-4.9-3.9-8.1-3.7-2.5,0-4.8,1-6.5,2.8"/>
          <path id="_パス_16" data-name="パス 16" class="cls-2" d="M25.2,96.7h3v22.2h9.8v2.9h-12.9v-25.1Z"/>
          <path id="_パス_17" data-name="パス 17" class="cls-2" d="M45.5,109.6v9.3h11.3v2.9h-14.3v-25.1h14.3v2.9h-11.3v7.2h10.6v2.9h-10.6Z"/>
          <path id="_パス_18" data-name="パス 18" class="cls-2" d="M66.6,114.2l-3.2,7.5h-3.4l11.6-26.3,11.6,26.3h-3.4l-3.2-7.5h-10.1ZM67.8,111.4h7.7l-3.8-9-3.8,9Z"/>
          <path id="_パス_19" data-name="パス 19" class="cls-2" d="M105.4,96.7h3v26.3l-19-19.9v18.6h-3v-26.3l19,19.9v-18.6Z"/>
          <path id="_パス_20" data-name="パス 20" class="cls-2" d="M113.1,96.7h3v16.8c0,1.5.4,3,1.4,4.2,2.3,2.1,5.8,2.1,8.1,0,1-1.2,1.5-2.7,1.4-4.2v-16.8h3v16.8c0,2.3-.8,4.5-2.3,6.2-3.5,3.2-8.9,3.2-12.3,0-1.6-1.7-2.4-3.9-2.3-6.2v-16.8Z"/>
          <path id="_パス_21" data-name="パス 21" class="cls-2" d="M137.7,111.7v10h-3v-25.1h6.8c2.2,0,4.4.7,6.1,2.1,1.6,1.3,2.5,3.4,2.4,5.5,0,2.1-.8,4.1-2.4,5.5-1.7,1.4-3.9,2.1-6.1,2.1h-3.8ZM137.7,108.9h3.8c1.4,0,2.8-.3,4-1.2,1-.8,1.6-2.1,1.5-3.4,0-1.3-.5-2.6-1.5-3.5-1.2-.8-2.6-1.3-4-1.2h-3.8v9.3Z"/>
        </g>
      </g>
    </g>
  </g>
</svg>